# xmcd
#
# Track frame offsets:
#	150
#	15221
#	34021
#	47225
#	73400
#	92293
#	109175
#	124351
#	148046
#	160528
#
# Disc length: 2430 seconds
#
# Revision: 1
# Processed by: cddbd v1.5.2PL0 Copyright (c) Steve Scherf et al.
# Submitted via: audiograbber 1.83.01
#
DISCID=7f097c0a
DTITLE=JC Dook - Creepin'
DYEAR=2014
DGENRE=
TTITLE0=Key To The Highway
TTITLE1=Beast Of Burden
TTITLE2=I'm Ready
TTITLE3=Cold Cold Feeling
TTITLE4=Creepin'
TTITLE5=She Caught The Katy
TTITLE6=Sooner Or Later
TTITLE7=Sweet Home Chicago
TTITLE8=Help Me
TTITLE9=Little Wing
EXTD=
EXTT0=
EXTT1=
EXTT2=
EXTT3=
EXTT4=
EXTT5=
EXTT6=
EXTT7=
EXTT8=
EXTT9=
PLAYORDER=
